<?xml version="1.0" encoding="utf-8"?>
<!-- Generator: Adobe Illustrator 24.2.3, SVG Export Plug-In . SVG Version: 6.00 Build 0)  -->
<svg version="1.1" id="Layer_1" xmlns="http://www.w3.org/2000/svg" xmlns:xlink="http://www.w3.org/1999/xlink" x="0px" y="0px"
	 viewBox="0 0 1920 1080" style="enable-background:new 0 0 1920 1080;" xml:space="preserve">
<style type="text/css">
	.st0{fill:#428CFF;}
	.st1{fill:#2670DE;}
	.st2{fill:#2161CF;}
	.st3{fill:#FFFFFF;}
	.st4{fill:none;stroke:#619CCC;stroke-width:8.5714;}
	.st5{font-family:'ArialMT';}
	.st6{font-size:28.5714px;}
	.st7{fill:#306996;}
	.st8{font-family:'Arial-BoldMT';}
	.st9{font-size:37.1429px;}
	.st10{fill:#F5F5F5;}
	.st11{fill:#6F6F6F;}
	.st12{font-size:34.2857px;}
	.st13{fill:#999999;}
	.st14{fill:#DEEDF2;}
</style>
<path class="st0" d="M1698.4,973.8h-10.4v15.8h16.5v-9.7C1704.5,976.5,1701.8,973.8,1698.4,973.8z"/>
<path class="st1" d="M1704.5,989.5h-16.5v16.2h10.4c3.4,0,6.1-2.7,6.1-6.1V989.5z"/>
<path class="st2" d="M1687.9,973.8h-9.3c-3.4,0-6.1,2.7-6.1,6.1v19.8c0,3.4,2.7,6.1,6.1,6.1h9.3V973.8z"/>
<path class="st3" d="M1693,994.2h4.4c0.7,0,1.2,0.5,1.2,1.2v4.4c0,0.7-0.5,1.2-1.2,1.2h-4.4c-0.7,0-1.2-0.5-1.2-1.2v-4.4
	C1691.8,994.7,1692.3,994.2,1693,994.2z M1693,978.6h4.4c0.7,0,1.2,0.5,1.2,1.2v4.4c0,0.7-0.5,1.2-1.2,1.2h-4.4
	c-0.7,0-1.2-0.5-1.2-1.2v-4.4C1691.8,979.1,1692.3,978.6,1693,978.6z M1683.2,993h-4.4c-0.7,0-1.2-0.5-1.2-1.2v-4.4
	c0-0.7,0.5-1.2,1.2-1.2h4.4c0.7,0,1.2,0.5,1.2,1.2v4.4C1684.4,992.5,1683.8,993,1683.2,993z"/>
<rect x="1680.1" y="985.4" transform="matrix(0.8103 -0.586 0.586 0.8103 -257.6664 1176.4365)" class="st3" width="16.3" height="1.6"/>
<rect x="1687.3" y="985" transform="matrix(0.6139 -0.7894 0.7894 0.6139 -132.2258 1715.8733)" class="st3" width="1.6" height="16.2"/>
<path class="st2" d="M1797.2,987h1.7v1.5h0c0-0.1,0.1-0.3,0.3-0.5s0.4-0.4,0.6-0.6s0.6-0.3,0.9-0.5c0.4-0.1,0.7-0.2,1.2-0.2
	c0.7,0,1.3,0.1,1.8,0.4s0.9,0.7,1.2,1.3c0.3-0.6,0.7-1,1.3-1.3c0.6-0.3,1.1-0.4,1.7-0.4c0.7,0,1.3,0.1,1.8,0.4
	c0.5,0.2,0.8,0.6,1.1,0.9c0.3,0.4,0.4,0.8,0.5,1.3s0.1,1,0.1,1.5v5.5h-1.8v-5.3c0-0.4,0-0.7-0.1-1c0-0.3-0.1-0.6-0.3-0.9
	s-0.4-0.5-0.6-0.6c-0.3-0.2-0.6-0.2-1.1-0.2c-0.9,0-1.5,0.3-1.9,0.8c-0.4,0.5-0.6,1.2-0.6,2.1v5.2h-1.8v-5c0-0.5,0-0.9-0.1-1.2
	c0-0.4-0.1-0.7-0.3-1c-0.1-0.3-0.3-0.5-0.6-0.6c-0.3-0.2-0.6-0.2-1-0.2c-0.3,0-0.6,0.1-0.9,0.2c-0.3,0.1-0.6,0.3-0.8,0.6
	c-0.2,0.3-0.4,0.6-0.5,1c-0.1,0.4-0.2,0.9-0.2,1.4v4.9h-1.8L1797.2,987L1797.2,987z M1791.9,991.9c-0.4,0-0.9,0-1.3,0.1
	c-0.4,0-0.9,0.1-1.2,0.3c-0.4,0.1-0.7,0.3-0.9,0.6s-0.3,0.5-0.3,0.9c0,0.5,0.2,0.9,0.5,1.2c0.4,0.2,0.9,0.4,1.5,0.4
	c0.5,0,0.9-0.1,1.3-0.2c0.3-0.2,0.6-0.4,0.8-0.6s0.4-0.6,0.5-0.9c0.1-0.3,0.1-0.6,0.1-1v-0.6L1791.9,991.9L1791.9,991.9z
	 M1786.9,988.1c0.5-0.5,1.1-0.8,1.8-1c0.7-0.2,1.3-0.3,2-0.3c0.7,0,1.3,0.1,1.8,0.3c0.5,0.2,0.9,0.4,1.2,0.7c0.3,0.3,0.6,0.6,0.7,1
	c0.2,0.4,0.2,0.8,0.2,1.2v4.8c0,0.3,0,0.6,0,0.9c0,0.3,0,0.5,0.1,0.8h-1.6c0-0.5-0.1-1-0.1-1.4h0c-0.4,0.6-0.9,1-1.4,1.3
	c-0.5,0.3-1.2,0.4-1.9,0.4c-0.4,0-0.9-0.1-1.3-0.2s-0.7-0.3-1-0.5c-0.3-0.2-0.5-0.5-0.7-0.9c-0.2-0.4-0.3-0.8-0.3-1.2
	c0-0.6,0.1-1.1,0.4-1.5c0.3-0.4,0.6-0.7,1.1-1s1-0.4,1.7-0.6c0.6-0.1,1.3-0.2,2-0.2h1.3v-0.4c0-0.2,0-0.5-0.1-0.7s-0.2-0.5-0.4-0.6
	c-0.2-0.2-0.4-0.3-0.7-0.5s-0.6-0.2-1-0.2c-0.3,0-0.6,0-0.9,0.1s-0.5,0.1-0.7,0.2c-0.2,0.1-0.4,0.2-0.6,0.3
	c-0.2,0.1-0.3,0.3-0.5,0.4L1786.9,988.1z M1779.4,987h1.8v1.5h0c0.1-0.3,0.3-0.5,0.5-0.7c0.2-0.2,0.4-0.4,0.7-0.5
	c0.2-0.1,0.5-0.3,0.8-0.3c0.3-0.1,0.6-0.1,0.9-0.1c0.3,0,0.6,0,0.8,0.1l-0.1,1.9c-0.1,0-0.3-0.1-0.4-0.1c-0.1,0-0.3,0-0.4,0
	c-0.9,0-1.6,0.2-2,0.7c-0.5,0.5-0.7,1.3-0.7,2.3v4.8h-1.8L1779.4,987z M1771.8,988.4c-0.5,0-0.9,0.1-1.3,0.2c-0.4,0.2-0.7,0.4-1,0.7
	c-0.3,0.3-0.5,0.6-0.6,1c-0.1,0.4-0.2,0.8-0.2,1.3c0,1,0.3,1.7,0.8,2.3c0.6,0.6,1.3,0.9,2.3,0.9s1.7-0.3,2.3-0.9
	c0.6-0.6,0.8-1.3,0.8-2.3c0-0.5-0.1-0.9-0.2-1.3c-0.1-0.4-0.4-0.8-0.6-1c-0.3-0.3-0.6-0.5-1-0.7
	C1772.7,988.5,1772.3,988.4,1771.8,988.4z M1776.7,996.3c0,0.7-0.1,1.4-0.4,2c-0.2,0.6-0.6,1.1-1,1.5c-0.5,0.4-1,0.8-1.6,1
	c-0.6,0.2-1.3,0.4-2.1,0.4c-0.9,0-1.7-0.1-2.5-0.4c-0.8-0.3-1.5-0.7-2.1-1.3l1.2-1.5c0.5,0.5,1,0.9,1.5,1.1s1.2,0.4,1.9,0.4
	c0.7,0,1.2-0.1,1.7-0.3c0.4-0.2,0.8-0.4,1-0.7c0.3-0.3,0.4-0.7,0.5-1c0.1-0.4,0.2-0.8,0.2-1.2v-1.4h-0.1c-0.3,0.6-0.8,1-1.4,1.3
	c-0.6,0.3-1.2,0.4-1.9,0.4c-0.7,0-1.3-0.1-1.9-0.4c-0.6-0.2-1.1-0.6-1.5-1s-0.8-0.9-1-1.5c-0.2-0.6-0.4-1.2-0.4-1.9
	c0-0.7,0.1-1.3,0.3-1.9c0.2-0.6,0.5-1.1,1-1.6c0.4-0.5,0.9-0.8,1.5-1.1c0.6-0.3,1.3-0.4,2-0.4c0.6,0,1.3,0.1,1.9,0.4
	c0.6,0.3,1.1,0.7,1.4,1.2h0V987h1.8L1776.7,996.3z M1762,991.9c-0.4,0-0.9,0-1.3,0.1c-0.4,0-0.9,0.1-1.2,0.3
	c-0.4,0.1-0.7,0.3-0.9,0.6s-0.3,0.5-0.3,0.9c0,0.5,0.2,0.9,0.5,1.2c0.4,0.2,0.9,0.4,1.5,0.4c0.5,0,0.9-0.1,1.3-0.2
	c0.3-0.2,0.6-0.4,0.8-0.6s0.4-0.6,0.5-0.9s0.1-0.6,0.1-1v-0.6L1762,991.9L1762,991.9z M1756.9,988.1c0.5-0.5,1.1-0.8,1.8-1
	c0.7-0.2,1.3-0.3,2-0.3c0.7,0,1.3,0.1,1.8,0.3c0.5,0.2,0.9,0.4,1.2,0.7c0.3,0.3,0.6,0.6,0.7,1c0.2,0.4,0.2,0.8,0.2,1.2v4.8
	c0,0.3,0,0.6,0,0.9c0,0.3,0,0.5,0.1,0.8h-1.6c0-0.5-0.1-1-0.1-1.4h0c-0.4,0.6-0.9,1-1.4,1.3c-0.5,0.3-1.2,0.4-1.9,0.4
	c-0.4,0-0.9-0.1-1.3-0.2s-0.7-0.3-1-0.5c-0.3-0.2-0.5-0.5-0.7-0.9c-0.2-0.4-0.3-0.8-0.3-1.2c0-0.6,0.1-1.1,0.4-1.5
	c0.3-0.4,0.6-0.7,1.1-1s1-0.4,1.7-0.6s1.3-0.2,2-0.2h1.3v-0.4c0-0.2,0-0.5-0.1-0.7s-0.2-0.5-0.4-0.6c-0.2-0.2-0.4-0.3-0.7-0.5
	s-0.6-0.2-1-0.2c-0.3,0-0.6,0-0.9,0.1s-0.5,0.1-0.7,0.2c-0.2,0.1-0.4,0.2-0.6,0.3c-0.2,0.1-0.3,0.3-0.5,0.4L1756.9,988.1z
	 M1752.2,987h1.8v9.5h-1.8V987z M1751.8,983.6c0-0.4,0.1-0.7,0.4-0.9s0.6-0.4,0.9-0.4s0.7,0.1,0.9,0.4s0.4,0.6,0.4,0.9
	s-0.1,0.7-0.4,0.9s-0.6,0.4-0.9,0.4s-0.7-0.1-0.9-0.4C1751.9,984.2,1751.8,983.9,1751.8,983.6z M1744.5,995c0.5,0,0.9-0.1,1.3-0.2
	c0.4-0.2,0.7-0.4,1-0.7c0.3-0.3,0.5-0.6,0.6-1c0.1-0.4,0.2-0.8,0.2-1.3s-0.1-0.9-0.2-1.3s-0.4-0.8-0.6-1c-0.3-0.3-0.6-0.5-1-0.7
	c-0.4-0.2-0.8-0.2-1.3-0.2s-0.9,0.1-1.3,0.2c-0.4,0.2-0.7,0.4-1,0.7c-0.3,0.3-0.5,0.6-0.6,1s-0.2,0.8-0.2,1.3s0.1,0.9,0.2,1.3
	c0.1,0.4,0.4,0.8,0.6,1c0.3,0.3,0.6,0.5,1,0.7C1743.5,994.9,1744,995,1744.5,995z M1749.4,996.4h-1.8v-1.4h0
	c-0.3,0.5-0.8,0.9-1.4,1.2c-0.6,0.3-1.2,0.4-1.9,0.4c-0.7,0-1.4-0.1-2-0.4c-0.6-0.3-1.1-0.6-1.5-1.1c-0.4-0.5-0.7-1-1-1.6
	c-0.2-0.6-0.3-1.3-0.3-2s0.1-1.4,0.3-2c0.2-0.6,0.5-1.1,1-1.6c0.4-0.4,0.9-0.8,1.5-1c0.6-0.3,1.3-0.4,2-0.4c0.7,0,1.3,0.1,1.9,0.4
	c0.6,0.3,1.1,0.7,1.4,1.2h0v-7h1.8L1749.4,996.4L1749.4,996.4z M1732.6,995c0.5,0,0.9-0.1,1.3-0.2c0.4-0.2,0.7-0.4,1-0.7
	c0.3-0.3,0.5-0.6,0.6-1c0.1-0.4,0.2-0.8,0.2-1.3s-0.1-0.9-0.2-1.3c-0.1-0.4-0.4-0.8-0.6-1c-0.3-0.3-0.6-0.5-1-0.7
	c-0.4-0.2-0.8-0.2-1.3-0.2s-0.9,0.1-1.3,0.2c-0.4,0.2-0.7,0.4-1,0.7c-0.3,0.3-0.5,0.6-0.6,1s-0.2,0.8-0.2,1.3s0.1,0.9,0.2,1.3
	c0.1,0.4,0.4,0.8,0.6,1c0.3,0.3,0.6,0.5,1,0.7C1731.7,994.9,1732.1,995,1732.6,995z M1727.7,981.3h1.8v7h0c0.3-0.5,0.8-0.9,1.4-1.2
	c0.6-0.3,1.2-0.4,1.9-0.4c0.7,0,1.4,0.1,2,0.4c0.6,0.3,1.1,0.6,1.5,1s0.7,1,1,1.6c0.2,0.6,0.3,1.3,0.3,2s-0.1,1.4-0.3,2
	c-0.2,0.6-0.5,1.1-1,1.6c-0.4,0.5-0.9,0.8-1.5,1.1c-0.6,0.3-1.3,0.4-2,0.4c-0.6,0-1.3-0.1-1.9-0.4c-0.6-0.3-1.1-0.7-1.4-1.2h0v1.4
	h-1.8L1727.7,981.3L1727.7,981.3z M1720.1,995c0.5,0,0.9-0.1,1.3-0.2c0.4-0.2,0.7-0.4,1-0.7c0.3-0.3,0.5-0.6,0.6-1
	c0.1-0.4,0.2-0.8,0.2-1.3s-0.1-0.9-0.2-1.3s-0.4-0.8-0.6-1c-0.3-0.3-0.6-0.5-1-0.7c-0.4-0.2-0.8-0.2-1.3-0.2s-0.9,0.1-1.3,0.2
	c-0.4,0.2-0.7,0.4-1,0.7c-0.3,0.3-0.5,0.6-0.6,1s-0.2,0.8-0.2,1.3s0.1,0.9,0.2,1.3c0.1,0.4,0.4,0.8,0.6,1c0.3,0.3,0.6,0.5,1,0.7
	C1719.2,994.9,1719.6,995,1720.1,995z M1725,996.4h-1.8v-1.4h0c-0.3,0.5-0.8,0.9-1.4,1.2c-0.6,0.3-1.2,0.4-1.9,0.4
	c-0.7,0-1.4-0.1-2-0.4c-0.6-0.3-1.1-0.6-1.5-1.1c-0.4-0.5-0.7-1-1-1.6c-0.2-0.6-0.3-1.3-0.3-2s0.1-1.4,0.3-2c0.2-0.6,0.5-1.1,1-1.6
	c0.4-0.4,0.9-0.8,1.5-1c0.6-0.3,1.3-0.4,2-0.4c0.7,0,1.3,0.1,1.9,0.4c0.6,0.3,1.1,0.7,1.4,1.2h0v-7h1.8L1725,996.4L1725,996.4z"/>
<path class="st0" d="M1826,991.7c0,0.5,0.1,0.9,0.2,1.3s0.4,0.8,0.6,1c0.3,0.3,0.6,0.5,1,0.7c0.4,0.2,0.8,0.2,1.3,0.2
	c0.5,0,0.9-0.1,1.3-0.2c0.4-0.2,0.7-0.4,1-0.7c0.3-0.3,0.5-0.6,0.6-1c0.1-0.4,0.2-0.8,0.2-1.3c0-0.5-0.1-0.9-0.2-1.3
	c-0.1-0.4-0.4-0.8-0.6-1c-0.3-0.3-0.6-0.5-1-0.7c-0.4-0.2-0.8-0.2-1.3-0.2c-0.5,0-0.9,0.1-1.3,0.2c-0.4,0.2-0.7,0.4-1,0.7
	c-0.3,0.3-0.5,0.6-0.6,1C1826.1,990.8,1826,991.2,1826,991.7z M1824.1,991.7c0-0.7,0.1-1.3,0.4-1.9c0.3-0.6,0.6-1.1,1.1-1.6
	c0.5-0.5,1-0.8,1.6-1.1c0.6-0.3,1.3-0.4,2-0.4c0.7,0,1.4,0.1,2,0.4c0.6,0.3,1.1,0.6,1.6,1.1c0.5,0.5,0.8,1,1.1,1.6
	c0.3,0.6,0.4,1.2,0.4,1.9s-0.1,1.3-0.4,1.9c-0.3,0.6-0.6,1.1-1.1,1.6c-0.5,0.4-1,0.8-1.6,1.1s-1.3,0.4-2,0.4c-0.7,0-1.4-0.1-2-0.4
	s-1.1-0.6-1.6-1.1c-0.5-0.4-0.8-1-1.1-1.6C1824.2,993,1824.1,992.4,1824.1,991.7z M1819.9,987h1.8v9.5h-1.8V987z M1819.5,983.6
	c0-0.4,0.1-0.7,0.4-0.9s0.6-0.4,0.9-0.4c0.4,0,0.7,0.1,0.9,0.4s0.4,0.6,0.4,0.9s-0.1,0.7-0.4,0.9s-0.6,0.4-0.9,0.4
	c-0.4,0-0.7-0.1-0.9-0.4C1819.6,984.2,1819.5,983.9,1819.5,983.6z M1815.6,996.5c-0.4,0-0.7-0.1-0.9-0.4c-0.3-0.3-0.4-0.6-0.4-0.9
	s0.1-0.7,0.4-0.9s0.6-0.4,0.9-0.4c0.4,0,0.7,0.1,0.9,0.4s0.4,0.6,0.4,0.9s-0.1,0.7-0.4,0.9C1816.3,996.4,1816,996.5,1815.6,996.5z"
	/>
<path class="st4" d="M926.3,958.6h14c7.7,0,14-6.3,14-14V692.9c0-12.6,10.2-22.9,22.9-22.9h22.9"/>
<text transform="matrix(1 0 0 1 946.4214 994.2852)" class="st5 st6">*</text>
<text transform="matrix(1 0 0 1 966.3418 654.2852)" class="st5 st6">1</text>
<path class="st4" d="M1471.4,835.7h77.1c12.6,0,22.9-10.2,22.9-22.9V235.7c0-12.6-10.2-22.9-22.9-22.9h-26.7"/>
<text transform="matrix(1 0 0 1 1491.582 871.4287)" class="st5 st6">*</text>
<text transform="matrix(1 0 0 1 1539.6289 197.1436)" class="st5 st6">1</text>
<rect x="348.6" y="80" class="st7" width="577.7" height="91.4"/>
<text transform="matrix(1 0 0 1 385.7144 138.7139)" class="st3 st8 st9">Ateliers</text>
<rect x="348.6" y="171.4" class="st10" width="577.7" height="82.9"/>
<text transform="matrix(1 0 0 1 385.7144 224.8574)" class="st11 st5 st12">exercice</text>
<text transform="matrix(1 0 0 1 777.6567 224.8574)" class="st13 st5 st12">varchar</text>
<rect x="348.6" y="254.3" class="st10" width="577.7" height="82.9"/>
<text transform="matrix(1 0 0 1 385.7144 307.7148)" class="st11 st5 st12">groupe</text>
<text transform="matrix(1 0 0 1 777.6567 307.7148)" class="st13 st5 st12">varchar</text>
<rect x="348.6" y="337.1" class="st10" width="577.7" height="82.9"/>
<text transform="matrix(1 0 0 1 385.7144 390.5713)" class="st11 st5 st12">serie</text>
<text transform="matrix(1 0 0 1 855.77 390.5713)" class="st13 st5 st12">int</text>
<rect x="348.6" y="420" class="st10" width="577.7" height="82.9"/>
<text transform="matrix(1 0 0 1 385.7144 473.4287)" class="st11 st5 st12">repetition</text>
<text transform="matrix(1 0 0 1 855.77 473.4287)" class="st13 st5 st12">int</text>
<rect x="348.6" y="502.9" class="st10" width="577.7" height="82.9"/>
<text transform="matrix(1 0 0 1 385.7144 556.2861)" class="st11 st5 st12">rpe</text>
<text transform="matrix(1 0 0 1 855.77 556.2861)" class="st13 st5 st12">int</text>
<rect x="348.6" y="585.7" class="st10" width="577.7" height="82.9"/>
<text transform="matrix(1 0 0 1 385.7144 639.1426)" class="st11 st5 st12">charge</text>
<text transform="matrix(1 0 0 1 855.77 639.1426)" class="st13 st5 st12">int</text>
<rect x="348.6" y="668.6" class="st10" width="577.7" height="82.9"/>
<text transform="matrix(1 0 0 1 385.7144 722)" class="st11 st5 st12">ordre</text>
<text transform="matrix(1 0 0 1 855.77 722)" class="st13 st5 st12">int</text>
<rect x="348.6" y="751.4" class="st10" width="577.7" height="82.9"/>
<text transform="matrix(1 0 0 1 385.7144 804.8574)" class="st11 st5 st12">commentaire</text>
<text transform="matrix(1 0 0 1 777.6567 804.8574)" class="st13 st5 st12">varchar</text>
<rect x="348.6" y="834.3" class="st10" width="577.7" height="82.9"/>
<text transform="matrix(1 0 0 1 385.7144 887.7148)" class="st5 st12">id</text>
<text transform="matrix(1 0 0 1 850.0952 887.7148)" class="st13 st5 st12">int</text>
<rect x="348.6" y="917.1" class="st14" width="577.7" height="82.9"/>
<text transform="matrix(1 0 0 1 385.7144 970.5723)" class="st11 st5 st12">seance_id</text>
<text transform="matrix(1 0 0 1 855.77 970.5723)" class="st13 st5 st12">int</text>
<rect x="977.1" y="80" class="st7" width="544.7" height="91.4"/>
<text transform="matrix(1 0 0 1 1014.2852 138.7139)" class="st3 st8 st9">Blocs</text>
<rect x="977.1" y="171.4" class="st14" width="544.7" height="82.9"/>
<text transform="matrix(1 0 0 1 1014.2852 224.8574)" class="st5 st12">id</text>
<text transform="matrix(1 0 0 1 1445.6855 224.8574)" class="st13 st5 st12">int</text>
<rect x="977.1" y="254.3" class="st10" width="544.7" height="82.9"/>
<text transform="matrix(1 0 0 1 1014.2852 307.7148)" class="st11 st5 st12">type</text>
<text transform="matrix(1 0 0 1 1373.248 307.7148)" class="st13 st5 st12">varchar</text>
<rect x="977.1" y="337.1" class="st10" width="544.7" height="82.9"/>
<text transform="matrix(1 0 0 1 1014.2852 390.5713)" class="st11 st5 st12">duree</text>
<text transform="matrix(1 0 0 1 1451.3613 390.5713)" class="st13 st5 st12">int</text>
<rect x="977.1" y="420" class="st10" width="544.7" height="82.9"/>
<text transform="matrix(1 0 0 1 1014.2852 473.4287)" class="st11 st5 st12">date_debut</text>
<text transform="matrix(1 0 0 1 1373.248 473.4287)" class="st13 st5 st12">varchar</text>
<rect x="1000" y="537.1" class="st7" width="471.4" height="91.4"/>
<text transform="matrix(1 0 0 1 1037.1426 595.8574)" class="st3 st8 st9">Seances</text>
<rect x="1000" y="628.6" class="st14" width="471.4" height="82.9"/>
<text transform="matrix(1 0 0 1 1037.1426 682)" class="st5 st12">id</text>
<text transform="matrix(1 0 0 1 1395.2559 682)" class="st13 st5 st12">int</text>
<rect x="1000" y="711.4" class="st10" width="471.4" height="82.9"/>
<text transform="matrix(1 0 0 1 1037.1426 764.8574)" class="st11 st5 st12">date</text>
<text transform="matrix(1 0 0 1 1322.8184 764.8574)" class="st13 st5 st12">varchar</text>
<rect x="1000" y="794.3" class="st14" width="471.4" height="82.9"/>
<text transform="matrix(1 0 0 1 1037.1426 847.7148)" class="st11 st5 st12">bloc_id</text>
<text transform="matrix(1 0 0 1 1400.9316 847.7148)" class="st13 st5 st12">int</text>
</svg>
